<svg width="753" height="173" viewBox="0 0 753 173" fill="none" xmlns="http://www.w3.org/2000/svg">
<path d="M32.9749 33.64C36.0656 34.2987 38.5482 35.844 40.4229 38.276C42.2976 40.6573 43.2349 43.3933 43.2349 46.484C43.2349 50.9427 41.6642 54.4893 38.5229 57.124C35.4322 59.708 31.1002 61 25.5269 61H0.674891V7.648H24.6909C30.1122 7.648 34.3429 8.88933 37.3829 11.372C40.4736 13.8547 42.0189 17.224 42.0189 21.48C42.0189 24.6213 41.1829 27.2307 39.5109 29.308C37.8896 31.3853 35.7109 32.8293 32.9749 33.64ZM13.6709 29.232H22.1829C24.3109 29.232 25.9322 28.776 27.0469 27.864C28.2122 26.9013 28.7949 25.508 28.7949 23.684C28.7949 21.86 28.2122 20.4667 27.0469 19.504C25.9322 18.5413 24.3109 18.06 22.1829 18.06H13.6709V29.232ZM23.2469 50.512C25.4256 50.512 27.0976 50.0307 28.2629 49.068C29.4789 48.0547 30.0869 46.6107 30.0869 44.736C30.0869 42.8613 29.4536 41.392 28.1869 40.328C26.9709 39.264 25.2736 38.732 23.0949 38.732H13.6709V50.512H23.2469ZM92.6485 18.592V61H79.6525V55.224C78.3352 57.0987 76.5365 58.6187 74.2565 59.784C72.0272 60.8987 69.5445 61.456 66.8085 61.456C63.5659 61.456 60.7032 60.7467 58.2205 59.328C55.7379 57.8587 53.8125 55.756 52.4445 53.02C51.0765 50.284 50.3925 47.0667 50.3925 43.368V18.592H63.3125V41.62C63.3125 44.4573 64.0472 46.6613 65.5165 48.232C66.9859 49.8027 68.9619 50.588 71.4445 50.588C73.9779 50.588 75.9792 49.8027 77.4485 48.232C78.9179 46.6613 79.6525 44.4573 79.6525 41.62V18.592H92.6485ZM108.519 14.184C106.239 14.184 104.365 13.5253 102.895 12.208C101.477 10.84 100.767 9.168 100.767 7.192C100.767 5.16533 101.477 3.49333 102.895 2.176C104.365 0.807996 106.239 0.123996 108.519 0.123996C110.749 0.123996 112.573 0.807996 113.991 2.176C115.461 3.49333 116.195 5.16533 116.195 7.192C116.195 9.168 115.461 10.84 113.991 12.208C112.573 13.5253 110.749 14.184 108.519 14.184ZM114.979 18.592V61H101.983V18.592H114.979ZM137.394 4.76V61H124.398V4.76H137.394ZM144.228 39.72C144.228 35.3627 145.038 31.5373 146.66 28.244C148.332 24.9507 150.586 22.4173 153.424 20.644C156.261 18.8707 159.428 17.984 162.924 17.984C165.71 17.984 168.244 18.5667 170.524 19.732C172.854 20.8973 174.678 22.468 175.996 24.444V4.76H188.992V61H175.996V54.92C174.78 56.9467 173.032 58.568 170.752 59.784C168.522 61 165.913 61.608 162.924 61.608C159.428 61.608 156.261 60.7213 153.424 58.948C150.586 57.124 148.332 54.5653 146.66 51.272C145.038 47.928 144.228 44.0773 144.228 39.72ZM175.996 39.796C175.996 36.5533 175.084 33.9947 173.26 32.12C171.486 30.2453 169.308 29.308 166.724 29.308C164.14 29.308 161.936 30.2453 160.112 32.12C158.338 33.944 157.452 36.4773 157.452 39.72C157.452 42.9627 158.338 45.5467 160.112 47.472C161.936 49.3467 164.14 50.284 166.724 50.284C169.308 50.284 171.486 49.3467 173.26 47.472C175.084 45.5973 175.996 43.0387 175.996 39.796ZM204.93 14.184C202.65 14.184 200.775 13.5253 199.306 12.208C197.887 10.84 197.178 9.168 197.178 7.192C197.178 5.16533 197.887 3.49333 199.306 2.176C200.775 0.807996 202.65 0.123996 204.93 0.123996C207.159 0.123996 208.983 0.807996 210.402 2.176C211.871 3.49333 212.606 5.16533 212.606 7.192C212.606 9.168 211.871 10.84 210.402 12.208C208.983 13.5253 207.159 14.184 204.93 14.184ZM211.39 18.592V61H198.394V18.592H211.39ZM246.648 18.136C251.613 18.136 255.565 19.7573 258.504 23C261.493 26.192 262.988 30.6 262.988 36.224V61H250.068V37.972C250.068 35.1347 249.333 32.9307 247.864 31.36C246.394 29.7893 244.418 29.004 241.936 29.004C239.453 29.004 237.477 29.7893 236.008 31.36C234.538 32.9307 233.804 35.1347 233.804 37.972V61H220.808V18.592H233.804V24.216C235.121 22.3413 236.894 20.872 239.124 19.808C241.353 18.6933 243.861 18.136 246.648 18.136ZM288.131 17.984C291.12 17.984 293.729 18.592 295.959 19.808C298.239 21.024 299.987 22.62 301.203 24.596V18.592H314.199V60.924C314.199 64.8253 313.413 68.3467 311.843 71.488C310.323 74.68 307.967 77.2133 304.775 79.088C301.633 80.9627 297.707 81.9 292.995 81.9C286.712 81.9 281.62 80.4053 277.719 77.416C273.817 74.4773 271.588 70.4747 271.031 65.408H283.875C284.28 67.0293 285.243 68.296 286.763 69.208C288.283 70.1707 290.157 70.652 292.387 70.652C295.072 70.652 297.2 69.8667 298.771 68.296C300.392 66.776 301.203 64.3187 301.203 60.924V54.92C299.936 56.896 298.188 58.5173 295.959 59.784C293.729 61 291.12 61.608 288.131 61.608C284.635 61.608 281.468 60.7213 278.631 58.948C275.793 57.124 273.539 54.5653 271.867 51.272C270.245 47.928 269.435 44.0773 269.435 39.72C269.435 35.3627 270.245 31.5373 271.867 28.244C273.539 24.9507 275.793 22.4173 278.631 20.644C281.468 18.8707 284.635 17.984 288.131 17.984ZM301.203 39.796C301.203 36.5533 300.291 33.9947 298.467 32.12C296.693 30.2453 294.515 29.308 291.931 29.308C289.347 29.308 287.143 30.2453 285.319 32.12C283.545 33.944 282.659 36.4773 282.659 39.72C282.659 42.9627 283.545 45.5467 285.319 47.472C287.143 49.3467 289.347 50.284 291.931 50.284C294.515 50.284 296.693 49.3467 298.467 47.472C300.291 45.5973 301.203 43.0387 301.203 39.796ZM363.342 49.98V61H356.73C352.018 61 348.345 59.86 345.71 57.58C343.075 55.2493 341.758 51.4747 341.758 46.256V29.384H336.59V18.592H341.758V8.256H354.754V18.592H363.266V29.384H354.754V46.408C354.754 47.6747 355.058 48.5867 355.666 49.144C356.274 49.7013 357.287 49.98 358.706 49.98H363.342ZM396.649 18.136C401.513 18.136 405.414 19.7573 408.353 23C411.292 26.192 412.761 30.6 412.761 36.224V61H399.841V37.972C399.841 35.1347 399.106 32.9307 397.637 31.36C396.168 29.7893 394.192 29.004 391.709 29.004C389.226 29.004 387.25 29.7893 385.781 31.36C384.312 32.9307 383.577 35.1347 383.577 37.972V61H370.581V4.76H383.577V24.292C384.894 22.4173 386.693 20.9227 388.973 19.808C391.253 18.6933 393.812 18.136 396.649 18.136ZM461.768 39.112C461.768 40.328 461.692 41.5947 461.54 42.912H432.128C432.331 45.5467 433.167 47.5733 434.636 48.992C436.156 50.36 438.005 51.044 440.184 51.044C443.427 51.044 445.681 49.676 446.948 46.94H460.78C460.071 49.7267 458.779 52.2347 456.904 54.464C455.08 56.6933 452.775 58.4413 449.988 59.708C447.201 60.9747 444.085 61.608 440.64 61.608C436.485 61.608 432.787 60.7213 429.544 58.948C426.301 57.1747 423.768 54.6413 421.944 51.348C420.12 48.0547 419.208 44.204 419.208 39.796C419.208 35.388 420.095 31.5373 421.868 28.244C423.692 24.9507 426.225 22.4173 429.468 20.644C432.711 18.8707 436.435 17.984 440.64 17.984C444.744 17.984 448.392 18.8453 451.584 20.568C454.776 22.2907 457.259 24.748 459.032 27.94C460.856 31.132 461.768 34.856 461.768 39.112ZM448.468 35.692C448.468 33.4627 447.708 31.6893 446.188 30.372C444.668 29.0547 442.768 28.396 440.488 28.396C438.309 28.396 436.46 29.0293 434.94 30.296C433.471 31.5627 432.559 33.3613 432.204 35.692H448.468ZM519.462 7.648V18.06H497.726V29.308H513.99V39.416H497.726V61H484.73V7.648H519.462ZM568.168 18.592V61H555.172V55.224C553.855 57.0987 552.056 58.6187 549.776 59.784C547.547 60.8987 545.064 61.456 542.328 61.456C539.085 61.456 536.223 60.7467 533.74 59.328C531.257 57.8587 529.332 55.756 527.964 53.02C526.596 50.284 525.912 47.0667 525.912 43.368V18.592H538.832V41.62C538.832 44.4573 539.567 46.6613 541.036 48.232C542.505 49.8027 544.481 50.588 546.964 50.588C549.497 50.588 551.499 49.8027 552.968 48.232C554.437 46.6613 555.172 44.4573 555.172 41.62V18.592H568.168ZM601.139 49.98V61H594.527C589.815 61 586.142 59.86 583.507 57.58C580.872 55.2493 579.555 51.4747 579.555 46.256V29.384H574.387V18.592H579.555V8.256H592.551V18.592H601.063V29.384H592.551V46.408C592.551 47.6747 592.855 48.5867 593.463 49.144C594.071 49.7013 595.084 49.98 596.503 49.98H601.139ZM650.254 18.592V61H637.258V55.224C635.941 57.0987 634.142 58.6187 631.862 59.784C629.633 60.8987 627.15 61.456 624.414 61.456C621.171 61.456 618.309 60.7467 615.826 59.328C613.343 57.8587 611.418 55.756 610.05 53.02C608.682 50.284 607.998 47.0667 607.998 43.368V18.592H620.918V41.62C620.918 44.4573 621.653 46.6613 623.122 48.232C624.591 49.8027 626.567 50.588 629.05 50.588C631.583 50.588 633.585 49.8027 635.054 48.232C636.523 46.6613 637.258 44.4573 637.258 41.62V18.592H650.254ZM672.585 25.66C674.105 23.3293 676.005 21.5053 678.285 20.188C680.565 18.82 683.098 18.136 685.885 18.136V31.892H682.313C679.07 31.892 676.638 32.6013 675.017 34.02C673.396 35.388 672.585 37.82 672.585 41.316V61H659.589V18.592H672.585V25.66ZM732.073 39.112C732.073 40.328 731.997 41.5947 731.845 42.912H702.433C702.635 45.5467 703.471 47.5733 704.941 48.992C706.461 50.36 708.31 51.044 710.489 51.044C713.731 51.044 715.986 49.676 717.253 46.94H731.085C730.375 49.7267 729.083 52.2347 727.209 54.464C725.385 56.6933 723.079 58.4413 720.293 59.708C717.506 60.9747 714.39 61.608 710.945 61.608C706.79 61.608 703.091 60.7213 699.849 58.948C696.606 57.1747 694.073 54.6413 692.249 51.348C690.425 48.0547 689.513 44.204 689.513 39.796C689.513 35.388 690.399 31.5373 692.173 28.244C693.997 24.9507 696.53 22.4173 699.773 20.644C703.015 18.8707 706.739 17.984 710.945 17.984C715.049 17.984 718.697 18.8453 721.889 20.568C725.081 22.2907 727.563 24.748 729.337 27.94C731.161 31.132 732.073 34.856 732.073 39.112ZM718.773 35.692C718.773 33.4627 718.013 31.6893 716.493 30.372C714.973 29.0547 713.073 28.396 710.793 28.396C708.614 28.396 706.765 29.0293 705.245 30.296C703.775 31.5627 702.863 33.3613 702.509 35.692H718.773ZM752.913 48.992L744.477 70.804H736.193L740.601 48.992H752.913ZM83.6767 115.824C83.6767 118.915 82.9674 121.752 81.5487 124.336C80.13 126.869 77.9514 128.921 75.0127 130.492C72.074 132.063 68.426 132.848 64.0687 132.848H56.0127V152H43.0167V98.648H64.0687C68.3247 98.648 71.922 99.3827 74.8607 100.852C77.7994 102.321 80.0034 104.348 81.4727 106.932C82.942 109.516 83.6767 112.48 83.6767 115.824ZM63.0807 122.512C65.5634 122.512 67.4127 121.929 68.6287 120.764C69.8447 119.599 70.4527 117.952 70.4527 115.824C70.4527 113.696 69.8447 112.049 68.6287 110.884C67.4127 109.719 65.5634 109.136 63.0807 109.136H56.0127V122.512H63.0807ZM109.746 152.608C105.592 152.608 101.842 151.721 98.4985 149.948C95.2051 148.175 92.5958 145.641 90.6705 142.348C88.7958 139.055 87.8585 135.204 87.8585 130.796C87.8585 126.439 88.8211 122.613 90.7465 119.32C92.6718 115.976 95.3065 113.417 98.6505 111.644C101.994 109.871 105.744 108.984 109.898 108.984C114.053 108.984 117.802 109.871 121.146 111.644C124.49 113.417 127.125 115.976 129.05 119.32C130.976 122.613 131.938 126.439 131.938 130.796C131.938 135.153 130.95 139.004 128.974 142.348C127.049 145.641 124.389 148.175 120.994 149.948C117.65 151.721 113.901 152.608 109.746 152.608ZM109.746 141.36C112.229 141.36 114.332 140.448 116.054 138.624C117.828 136.8 118.714 134.191 118.714 130.796C118.714 127.401 117.853 124.792 116.13 122.968C114.458 121.144 112.381 120.232 109.898 120.232C107.365 120.232 105.262 121.144 103.59 122.968C101.918 124.741 101.082 127.351 101.082 130.796C101.082 134.191 101.893 136.8 103.514 138.624C105.186 140.448 107.264 141.36 109.746 141.36ZM199.709 109.592L188.233 152H173.869L167.181 124.488L160.265 152H145.977L134.425 109.592H147.421L153.425 139.916L160.569 109.592H174.325L181.545 139.764L187.473 109.592H199.709ZM244.641 130.112C244.641 131.328 244.565 132.595 244.413 133.912H215.001C215.204 136.547 216.04 138.573 217.509 139.992C219.029 141.36 220.878 142.044 223.057 142.044C226.3 142.044 228.554 140.676 229.821 137.94H243.653C242.944 140.727 241.652 143.235 239.777 145.464C237.953 147.693 235.648 149.441 232.861 150.708C230.074 151.975 226.958 152.608 223.513 152.608C219.358 152.608 215.66 151.721 212.417 149.948C209.174 148.175 206.641 145.641 204.817 142.348C202.993 139.055 202.081 135.204 202.081 130.796C202.081 126.388 202.968 122.537 204.741 119.244C206.565 115.951 209.098 113.417 212.341 111.644C215.584 109.871 219.308 108.984 223.513 108.984C227.617 108.984 231.265 109.845 234.457 111.568C237.649 113.291 240.132 115.748 241.905 118.94C243.729 122.132 244.641 125.856 244.641 130.112ZM231.341 126.692C231.341 124.463 230.581 122.689 229.061 121.372C227.541 120.055 225.641 119.396 223.361 119.396C221.182 119.396 219.333 120.029 217.813 121.296C216.344 122.563 215.432 124.361 215.077 126.692H231.341ZM264.493 116.66C266.013 114.329 267.913 112.505 270.193 111.188C272.473 109.82 275.006 109.136 277.793 109.136V122.892H274.221C270.978 122.892 268.546 123.601 266.925 125.02C265.304 126.388 264.493 128.82 264.493 132.316V152H251.497V109.592H264.493V116.66ZM323.981 130.112C323.981 131.328 323.905 132.595 323.753 133.912H294.341C294.544 136.547 295.38 138.573 296.849 139.992C298.369 141.36 300.218 142.044 302.397 142.044C305.64 142.044 307.894 140.676 309.161 137.94H322.993C322.284 140.727 320.992 143.235 319.117 145.464C317.293 147.693 314.988 149.441 312.201 150.708C309.414 151.975 306.298 152.608 302.853 152.608C298.698 152.608 295 151.721 291.757 149.948C288.514 148.175 285.981 145.641 284.157 142.348C282.333 139.055 281.421 135.204 281.421 130.796C281.421 126.388 282.308 122.537 284.081 119.244C285.905 115.951 288.438 113.417 291.681 111.644C294.924 109.871 298.648 108.984 302.853 108.984C306.957 108.984 310.605 109.845 313.797 111.568C316.989 113.291 319.472 115.748 321.245 118.94C323.069 122.132 323.981 125.856 323.981 130.112ZM310.681 126.692C310.681 124.463 309.921 122.689 308.401 121.372C306.881 120.055 304.981 119.396 302.701 119.396C300.522 119.396 298.673 120.029 297.153 121.296C295.684 122.563 294.772 124.361 294.417 126.692H310.681ZM328.253 130.72C328.253 126.363 329.064 122.537 330.685 119.244C332.357 115.951 334.612 113.417 337.449 111.644C340.286 109.871 343.453 108.984 346.949 108.984C349.736 108.984 352.269 109.567 354.549 110.732C356.88 111.897 358.704 113.468 360.021 115.444V95.76H373.017V152H360.021V145.92C358.805 147.947 357.057 149.568 354.777 150.784C352.548 152 349.938 152.608 346.949 152.608C343.453 152.608 340.286 151.721 337.449 149.948C334.612 148.124 332.357 145.565 330.685 142.272C329.064 138.928 328.253 135.077 328.253 130.72ZM360.021 130.796C360.021 127.553 359.109 124.995 357.285 123.12C355.512 121.245 353.333 120.308 350.749 120.308C348.165 120.308 345.961 121.245 344.137 123.12C342.364 124.944 341.477 127.477 341.477 130.72C341.477 133.963 342.364 136.547 344.137 138.472C345.961 140.347 348.165 141.284 350.749 141.284C353.333 141.284 355.512 140.347 357.285 138.472C359.109 136.597 360.021 134.039 360.021 130.796ZM411.521 115.596C412.737 113.62 414.485 112.024 416.765 110.808C419.045 109.592 421.654 108.984 424.593 108.984C428.089 108.984 431.255 109.871 434.093 111.644C436.93 113.417 439.159 115.951 440.781 119.244C442.453 122.537 443.289 126.363 443.289 130.72C443.289 135.077 442.453 138.928 440.781 142.272C439.159 145.565 436.93 148.124 434.093 149.948C431.255 151.721 428.089 152.608 424.593 152.608C421.603 152.608 418.994 152.025 416.765 150.86C414.535 149.644 412.787 148.048 411.521 146.072V152H398.525V95.76H411.521V115.596ZM430.065 130.72C430.065 127.477 429.153 124.944 427.329 123.12C425.555 121.245 423.351 120.308 420.717 120.308C418.133 120.308 415.929 121.245 414.105 123.12C412.331 124.995 411.445 127.553 411.445 130.796C411.445 134.039 412.331 136.597 414.105 138.472C415.929 140.347 418.133 141.284 420.717 141.284C423.301 141.284 425.505 140.347 427.329 138.472C429.153 136.547 430.065 133.963 430.065 130.72ZM493.427 109.592L466.827 172.14H452.843L462.571 150.556L445.319 109.592H459.835L469.639 136.116L479.367 109.592H493.427ZM547.444 142.576H527.532L524.34 152H510.736L530.04 98.648H545.088L564.392 152H550.636L547.444 142.576ZM544.1 132.544L537.488 113.012L530.952 132.544H544.1ZM643.683 98.648L629.775 152H614.043L605.531 116.888L596.715 152H580.983L567.455 98.648H581.363L589.039 137.484L598.539 98.648H612.827L621.947 137.484L629.699 98.648H643.683ZM669.504 152.532C665.603 152.532 662.107 151.899 659.016 150.632C655.926 149.365 653.443 147.491 651.568 145.008C649.744 142.525 648.782 139.536 648.68 136.04H662.512C662.715 138.016 663.399 139.536 664.564 140.6C665.73 141.613 667.25 142.12 669.124 142.12C671.05 142.12 672.57 141.689 673.684 140.828C674.799 139.916 675.356 138.675 675.356 137.104C675.356 135.787 674.9 134.697 673.988 133.836C673.127 132.975 672.038 132.265 670.72 131.708C669.454 131.151 667.63 130.517 665.248 129.808C661.803 128.744 658.991 127.68 656.812 126.616C654.634 125.552 652.759 123.981 651.188 121.904C649.618 119.827 648.832 117.116 648.832 113.772C648.832 108.807 650.631 104.931 654.228 102.144C657.826 99.3067 662.512 97.888 668.288 97.888C674.166 97.888 678.903 99.3067 682.5 102.144C686.098 104.931 688.023 108.832 688.276 113.848H674.216C674.115 112.125 673.482 110.783 672.316 109.82C671.151 108.807 669.656 108.3 667.832 108.3C666.262 108.3 664.995 108.731 664.032 109.592C663.07 110.403 662.588 111.593 662.588 113.164C662.588 114.887 663.399 116.229 665.02 117.192C666.642 118.155 669.175 119.193 672.62 120.308C676.066 121.473 678.852 122.588 680.98 123.652C683.159 124.716 685.034 126.261 686.604 128.288C688.175 130.315 688.96 132.924 688.96 136.116C688.96 139.156 688.175 141.917 686.604 144.4C685.084 146.883 682.855 148.859 679.916 150.328C676.978 151.797 673.507 152.532 669.504 152.532ZM703.038 152.608C700.758 152.608 698.883 151.949 697.414 150.632C695.995 149.264 695.286 147.592 695.286 145.616C695.286 143.589 695.995 141.892 697.414 140.524C698.883 139.156 700.758 138.472 703.038 138.472C705.267 138.472 707.091 139.156 708.51 140.524C709.979 141.892 710.714 143.589 710.714 145.616C710.714 147.592 709.979 149.264 708.51 150.632C707.091 151.949 705.267 152.608 703.038 152.608Z" fill="url(#paint0_linear_46_744)"/>
<path d="M393.812 158.08H454.221V161.5H393.812V158.08ZM476.232 158.08H692.246V161.5H476.232V158.08Z" fill="url(#paint1_linear_46_744)"/>
<defs>
<linearGradient id="paint0_linear_46_744" x1="376" y1="-2.78472" x2="376" y2="171" gradientUnits="userSpaceOnUse">
<stop offset="0.0933855" stop-color="#843AED"/>
<stop offset="0.447115" stop-color="#382F3D"/>
<stop offset="0.72116" stop-color="#4349FF"/>
<stop offset="0.990385" stop-color="#262633"/>
</linearGradient>
<linearGradient id="paint1_linear_46_744" x1="376" y1="-2.78472" x2="376" y2="171" gradientUnits="userSpaceOnUse">
<stop offset="0.0933855" stop-color="#843AED"/>
<stop offset="0.447115" stop-color="#382F3D"/>
<stop offset="0.72116" stop-color="#4349FF"/>
<stop offset="0.990385" stop-color="#262633"/>
</linearGradient>
</defs>
</svg>
